<svg viewBox="0 0 122 45" fill="none" xmlns="http://www.w3.org/2000/svg">
<g clip-path="url(#clip0_3630_2122)">
<g clip-path="url(#clip1_3630_2122)">
<path d="M57.1924 33.7819C57.2027 31.8382 58.86 30.2581 60.8573 30.2479C61.7367 30.2479 62.5353 30.5321 63.1638 31.0143C63.4043 31.2105 63.4438 31.5539 63.2634 31.7992C63.0642 32.0445 62.695 32.0835 62.4648 31.9075C62.0252 31.5539 61.4756 31.3678 60.8573 31.3678C60.1687 31.3678 59.5298 31.6419 59.0592 32.075C58.6093 32.5267 58.331 33.1154 58.331 33.7836C58.331 34.4519 58.611 35.0592 59.0592 35.4923C59.5281 35.9237 60.1669 36.1994 60.8573 36.1994C61.4773 36.1994 62.0149 36.0133 62.4648 35.6598C62.695 35.4923 63.0642 35.5329 63.2634 35.768C63.4438 36.0133 63.4026 36.3669 63.1638 36.553C62.5353 37.0334 61.7367 37.3194 60.8573 37.3194C58.86 37.3194 57.2027 35.7393 57.1924 33.7853V33.7819Z" fill="#2EC4B6"/>
<path d="M70.5122 31.298C71.1322 31.9459 71.5204 32.8104 71.5204 33.7815C71.5204 34.7525 71.1305 35.6271 70.5122 36.2649C69.9232 36.9027 69.0438 37.3155 68.125 37.3155C67.2062 37.3155 66.2874 36.9027 65.6777 36.2649C65.0594 35.6271 64.6885 34.7525 64.6885 33.7815C64.6885 32.8104 65.0577 31.9459 65.6777 31.298C66.2874 30.6501 67.165 30.2474 68.125 30.2474C69.0851 30.2474 69.9232 30.6501 70.5122 31.298ZM70.3817 33.7815C70.3817 33.1132 70.1121 32.4957 69.7033 32.0627C69.2843 31.6211 68.7244 31.3657 68.125 31.3657C67.4861 31.3657 66.9263 31.6211 66.5072 32.0627C66.0882 32.4941 65.8288 33.1132 65.8288 33.7815C65.8288 34.4497 66.0882 35.0672 66.5072 35.4901C66.9263 35.9316 67.4861 36.1972 68.125 36.1972C68.7244 36.1972 69.2826 35.9316 69.7033 35.4901C70.1121 35.0672 70.3817 34.4497 70.3817 33.7815Z" fill="#2EC4B6"/>
<path d="M73.4375 36.7778V30.9853C73.4375 30.6909 73.6762 30.4456 73.9871 30.4456C74.2979 30.4456 74.547 30.6909 74.547 30.9853V36.2279H77.2536C77.5438 36.2279 77.8032 36.4732 77.8032 36.7778C77.8032 37.0823 77.5438 37.3174 77.2536 37.3174H73.9888C73.6797 37.3174 73.4392 37.0721 73.4392 36.7778H73.4375Z" fill="#2EC4B6"/>
<path d="M79.0566 36.7778V30.9853C79.0566 30.6909 79.2971 30.4456 79.6062 30.4456C79.9154 30.4456 80.1661 30.6909 80.1661 30.9853V36.2279H82.8727C83.163 36.2279 83.4223 36.4732 83.4223 36.7778C83.4223 37.0823 83.163 37.3174 82.8727 37.3174H79.6079C79.2988 37.3174 79.0584 37.0721 79.0584 36.7778H79.0566Z" fill="#2EC4B6"/>
<path d="M88.2433 35.6967H85.8166L85.3272 36.9723C85.2378 37.1889 85.0283 37.3157 84.8085 37.3157C84.7381 37.3157 84.678 37.3056 84.6196 37.287C84.3293 37.1787 84.1902 36.8657 84.2898 36.5798L86.4967 30.7975C86.586 30.581 86.8058 30.4439 87.0257 30.4541C87.2558 30.4439 87.4653 30.581 87.5546 30.7975L89.7615 36.5798C89.8611 36.864 89.722 37.1787 89.4318 37.287C89.382 37.3073 89.3116 37.3157 89.2429 37.3157C89.023 37.3157 88.8135 37.1889 88.7328 36.9723L88.2433 35.6967ZM87.8346 34.6174L87.0257 32.5061L86.2168 34.6174H87.8346Z" fill="#2EC4B6"/>
<path d="M91.1289 36.7778V30.9853C91.1289 30.6808 91.3779 30.4457 91.6785 30.4457H93.0971C94.1464 30.4457 94.9948 31.2797 94.9948 32.3117C94.9948 32.7329 94.8557 33.1169 94.6153 33.4316C95.2146 33.8055 95.6234 34.4618 95.6234 35.2079C95.6234 36.3769 94.6651 37.3192 93.4869 37.3192H91.7197C91.7094 37.3192 91.7094 37.309 91.7094 37.309C91.6888 37.309 91.6888 37.3192 91.6802 37.3192C91.3814 37.3192 91.1306 37.0739 91.1306 36.7795L91.1289 36.7778ZM92.2366 33.1068H93.0953C93.535 33.1068 93.8836 32.743 93.8836 32.3117C93.8836 31.8803 93.5333 31.5368 93.0953 31.5368H92.2366V33.1085V33.1068ZM92.2366 36.228H93.4852C94.0537 36.2179 94.5139 35.7763 94.5139 35.2079C94.5139 34.6395 94.0554 34.2064 93.4852 34.1962H92.2366V36.228Z" fill="#2EC4B6"/>
<path d="M96.8392 35.6088C97.0196 35.3922 97.3493 35.3635 97.5674 35.5394C98.0071 35.893 98.7662 36.3057 99.4755 36.2956C99.9752 36.2956 100.423 36.1484 100.724 35.9319C101.023 35.7153 101.153 35.47 101.153 35.2247C101.153 35.0979 101.124 35.0082 101.064 34.9101C101.004 34.812 100.915 34.7138 100.765 34.6157C100.475 34.4296 99.9873 34.2621 99.3982 34.1539H99.3776C98.9087 34.0659 98.4691 33.9475 98.0895 33.7715C97.71 33.5956 97.3802 33.3503 97.1604 33.0052C97.011 32.77 96.9303 32.4943 96.9303 32.1999C96.9303 31.6112 97.2703 31.1003 97.7289 30.767C98.1977 30.4338 98.8074 30.246 99.4566 30.246C100.415 30.246 101.124 30.7078 101.633 31.0309C101.863 31.1883 101.931 31.5029 101.772 31.7279C101.622 31.9631 101.303 32.0324 101.062 31.8751C100.552 31.5418 100.065 31.2475 99.4549 31.2475C99.0049 31.2475 98.6065 31.3845 98.3368 31.5807C98.0672 31.777 97.9573 31.9935 97.9573 32.1999C97.9573 32.3183 97.9779 32.3962 98.0277 32.4757C98.0775 32.5535 98.1668 32.6432 98.2973 32.7311C98.5566 32.9071 99.0066 33.0644 99.5459 33.1625H99.5665C100.077 33.2606 100.545 33.3875 100.944 33.5753C101.353 33.7715 101.713 34.027 101.942 34.3907C102.091 34.6259 102.182 34.9202 102.182 35.2247C102.182 35.8524 101.823 36.3937 101.323 36.7473C100.834 37.1009 100.185 37.3073 99.4755 37.3073C98.3969 37.2971 97.4884 36.7676 96.92 36.326C96.7001 36.1501 96.6709 35.8253 96.841 35.6088H96.8392Z" fill="#2EC4B6"/>
<path d="M37.6104 10.8063V27.5274H41.9657V19.49H49.962V16.1759H41.9657V11.6285C41.9863 11.3544 42.0602 11.1497 42.189 11.0127C42.3178 10.8757 42.5617 10.808 42.9206 10.808H50.977V7.40594H41.6686C38.9637 7.40594 37.6104 8.5394 37.6104 10.808V10.8063Z" fill="#2EC4B6"/>
<path d="M96.0573 8.28392C95.3806 7.54125 94.4756 7.16907 93.3421 7.16907C92.2086 7.16907 91.3481 7.4279 90.6423 7.94557C89.9364 8.46324 89.3937 9.39707 89.0159 10.7471L86.6596 19.5475C86.5411 19.9975 86.3814 20.2225 86.1822 20.2225C85.9829 20.2225 85.8249 19.9975 85.7047 19.5475L83.3484 10.7471C82.9706 9.39707 82.4279 8.46324 81.722 7.94557C81.0162 7.4279 80.1163 7.16907 79.0223 7.16907C77.9283 7.16907 76.9837 7.54125 76.307 8.28392C75.6304 9.02659 75.2525 10.1025 75.1735 11.51L74.3389 27.5273H78.5156L78.6942 23.3911C78.8145 20.6538 78.8728 16.7899 78.8728 11.8044C78.8728 11.2174 79.0016 10.9247 79.261 10.9247C79.4602 10.9247 79.6096 11.1209 79.7092 11.5117L82.4846 21.3102C82.7439 22.2102 83.2059 22.8937 83.8722 23.364C84.5386 23.8326 85.3097 24.0678 86.1839 24.0678C87.058 24.0678 87.8292 23.8326 88.4955 23.364C89.1619 22.8954 89.6239 22.2102 89.8832 21.3102L92.6585 11.5117C92.7581 11.1209 92.9076 10.9247 93.1068 10.9247C93.3661 10.9247 93.4949 11.2174 93.4949 11.8044C93.4949 16.7916 93.555 20.6538 93.6735 23.3911L93.8521 27.5273H98.0289L97.1942 11.51C97.1152 10.1025 96.7374 9.02659 96.0607 8.28392H96.0573Z" fill="#2EC4B6"/>
<path d="M62.2278 6.79858C59.291 6.79858 56.5621 7.86945 54.5458 9.81155C52.5038 11.7807 51.3789 14.4773 51.3789 17.4057C51.3789 20.3341 52.5038 23.0324 54.5458 24.9999C56.5621 26.9437 59.2893 28.0129 62.2278 28.0129C65.1663 28.0129 67.8936 26.942 69.9098 24.9999C71.9518 23.0307 73.0767 20.3341 73.0767 17.4057C73.0767 14.4773 71.9518 11.779 69.9098 9.81155C67.8936 7.86776 65.1663 6.79858 62.2278 6.79858ZM69.0116 17.4074C69.0116 21.476 66.159 24.4298 62.2278 24.4298C58.2966 24.4298 55.444 21.476 55.444 17.4074C55.444 13.3388 58.2966 10.385 62.2278 10.385C66.159 10.385 69.0116 13.3388 69.0116 17.4074Z" fill="#2EC4B6"/>
<path d="M118.596 9.81302C116.58 7.86922 113.853 6.80005 110.914 6.80005C107.976 6.80005 105.249 7.87091 103.232 9.81302C101.19 11.7822 100.065 14.4788 100.065 17.4072C100.065 20.3356 101.19 23.0339 103.232 25.0014C105.249 26.9452 107.976 28.0143 110.914 28.0143C113.853 28.0143 116.58 26.9435 118.596 25.0014C120.638 23.0322 121.763 20.3356 121.763 17.4072C121.763 14.4788 120.638 11.7805 118.596 9.81302ZM117.698 17.4072C117.698 21.4758 114.846 24.4296 110.914 24.4296C106.983 24.4296 104.131 21.4758 104.131 17.4072C104.131 13.3386 106.983 10.3848 110.914 10.3848C114.846 10.3848 117.698 13.3386 117.698 17.4072Z" fill="#2EC4B6"/>
<path d="M23.7862 44.5588H3.8659C3.84701 44.5588 3.82812 44.5588 3.81094 44.5588C2.49369 44.4827 0 43.6944 0 41.2617V16.0989C0 15.5846 0.422484 15.1684 0.944578 15.1684H15.1133C15.6353 15.1684 16.0578 15.5846 16.0578 16.0989V17.1917L21.0847 13.3211L16.0578 9.15263V10.166C16.0578 10.6803 15.6353 11.0964 15.1133 11.0964H1.29493C0.772837 11.0964 0.350353 10.6803 0.350353 10.166V2.67839C0.350353 2.6547 0.350353 2.63271 0.353787 2.60903C0.432789 1.55339 1.26917 -0.441162 3.86418 -0.441162H24.6449C24.717 -0.441162 24.7874 -0.432703 24.8579 -0.417478C25.8832 -0.184019 27.8221 0.800567 27.8221 2.85771V25.0989C27.8221 25.6132 27.3996 26.0293 26.8775 26.0293H12.7844C12.2623 26.0293 11.8399 25.6132 11.8399 25.0989V24.2649L7.08434 28.0611L11.6784 31.7034V31.1096C11.6784 30.5953 12.1009 30.1791 12.623 30.1791H26.8775C27.3996 30.1791 27.8221 30.5953 27.8221 31.1096V41.5983C27.8221 41.6237 27.8221 41.6491 27.8187 41.6761C27.7345 42.6743 26.7831 44.5588 23.7862 44.5588ZM3.90025 42.6979H23.7862C25.6565 42.6979 25.9055 41.7066 25.933 41.5442V32.04H13.5676V33.6472C13.5676 34.0058 13.3598 34.3323 13.0317 34.4863C12.7037 34.6419 12.3156 34.5962 12.0322 34.3712L4.99081 28.7885C4.76926 28.6126 4.63874 28.347 4.63874 28.0662C4.63874 27.7853 4.76754 27.518 4.98909 27.3421L12.1919 21.5902C12.4753 21.3635 12.8652 21.3179 13.1932 21.4735C13.5212 21.6274 13.7307 21.954 13.7307 22.3126V24.1684H25.9347V2.85771C25.9347 1.90865 24.8424 1.51448 24.5212 1.41974H3.86418C2.52116 1.41974 2.28073 2.38064 2.23951 2.72575V9.23384H14.1687V7.15132C14.1687 6.78929 14.3816 6.46109 14.7148 6.30715C15.048 6.15489 15.4413 6.20564 15.7212 6.4391L23.192 12.6342C23.4101 12.8152 23.5337 13.0825 23.5286 13.3633C23.5234 13.6442 23.3895 13.9064 23.1662 14.079L15.6955 19.8308C15.4104 20.0491 15.0239 20.0897 14.6994 19.934C14.3748 19.7784 14.1687 19.4536 14.1687 19.0983V17.0293H1.88916V41.26C1.88916 42.4882 3.65981 42.6776 3.90025 42.6979ZM17.7752 3.11147C17.7752 2.87801 17.5829 2.68854 17.3459 2.68854H10.4762C10.2392 2.68854 10.0469 2.87801 10.0469 3.11147C10.0469 3.34493 10.2392 3.5344 10.4762 3.5344H17.3459C17.5829 3.5344 17.7752 3.34493 17.7752 3.11147ZM13.9111 37.1998C12.726 37.1998 11.7643 38.1472 11.7643 39.3145C11.7643 40.4818 12.726 41.4291 13.9111 41.4291C15.0961 41.4291 16.0578 40.4818 16.0578 39.3145C16.0578 38.1472 15.0961 37.1998 13.9111 37.1998Z" fill="#2EC4B6"/>
</g>
</g>
<defs>
<clipPath id="clip0_3630_2122">
<rect width="121.765" height="45" fill="white"/>
</clipPath>
<clipPath id="clip1_3630_2122">
<rect width="121.765" height="45" fill="white" transform="translate(0 -0.441162)"/>
</clipPath>
</defs>
</svg>
